<svg xmlns='http://www.w3.org/2000/svg' version='1.1' width='820px' height='332px'><svg xmlns="http://www.w3.org/2000/svg" width="809" height="160.60000610351562" x="10.5" y="10.5"><g class="fl-chart"><rect class="fl-chart-debug-rectangle" x="0" y="0" style="stroke-width: 1px; fill: none; display: none; stroke: red;" width="809" height="160.60000610351562"/><clipPath class="fl-data-clip-path" id="fl-chart-layout-0-clip-path"><rect x="0" y="0" width="809" height="160.60000610351562"/></clipPath><clipPath class="fl-grid-clip-path" id="fl-chart-layout-0-grid-clip-path"><rect x="8.9" y="6.320000171661377" width="798.2" height="147.96000576019287"/></clipPath><g class="fl-chart-background"><rect class="fl-chart-fill" x="10.5" y="7.9200001716613775" width="795" height="144.76000576019288" fill="none"/><image class="fl-chart-image" x="10.5" y="7.9200001716613775" width="795" height="144.76000576019288" preserveAspectRatio="none"/><rect class="fl-chart-interaction" x="10.5" y="7.9200001716613775" width="795" height="144.76000576019288" style="opacity: 0;"/></g><g class="fl-data-background" clip-path="url(#fl-chart-layout-0-clip-path)"/><g class="fl-gridlines" clip-path="url(#fl-chart-layout-0-grid-clip-path)" style="pointer-events: none;"><g class="fl-gridlines-vertical"/><g class="fl-gridlines-horizontal"/></g><g class="fl-axes" aria-hidden="true"><g class="fl-x-axes"><g class="fl-axis fl-x-axis fl-bottom-axis"><g class="fl-axis-line"/><g class="fl-axis-ticks"/><g class="fl-axis-title"/></g><g class="fl-axis fl-x-axis fl-top-axis"><g class="fl-axis-line"/><g class="fl-axis-ticks"/><g class="fl-axis-title"/></g></g><g class="fl-y-axes"><g class="fl-axis fl-y-axis fl-left-axis"><g class="fl-axis-line"/><g class="fl-axis-ticks"><g transform="translate(10.5,80.30000305175781)" style="opacity: 1;"><line x2="0" style="stroke: rgb(238, 238, 238); stroke-width: 1.6;"/><text text-anchor="end" transform="translate(-10.5,4.62)" style="user-select: none; cursor: default; font-size: 14px; font-weight: normal;"><tspan x="0" dy="0"/></text></g></g><g class="fl-axis-title"/></g><g class="fl-axis fl-y-axis fl-right-axis"><g class="fl-axis-line"/><g class="fl-axis-ticks"/><g class="fl-axis-title"/></g></g></g><g class="fl-data-foreground" clip-path="url(#fl-chart-layout-0-clip-path)"><g class="bar-groups"><g class="bar-group"><g class="icons"><g class="icon-layer" style="opacity: 1;"><defs><path id="fl-icon-46915" d="M128 0c35.346 0 64 28.654 64 64s-28.654 64-64 64c-35.346 0-64-28.654-64-64S92.654 0 128 0m119.283 354.179l-48-192A24 24 0 0 0 176 144h-11.36c-22.711 10.443-49.59 10.894-73.28 0H80a24 24 0 0 0-23.283 18.179l-48 192C4.935 369.305 16.383 384 32 384h56v104c0 13.255 10.745 24 24 24h32c13.255 0 24-10.745 24-24V384h56c15.591 0 27.071-14.671 23.283-29.821z" transform="translate(0,0)scale(0.22901485286280515)" style="fill: rgb(67, 40, 231); stroke: none; stroke-width: 0;"/></defs><g class="icons" clip-path="url(#fl-clip-path-46915)"><use transform="translate(46.5,22.158000459671015)" xmlns:ns1="http://www.w3.org/1999/xlink" ns1:href="#fl-icon-46915"/><use transform="translate(176.5,22.158000459671015)" xmlns:ns2="http://www.w3.org/1999/xlink" ns2:href="#fl-icon-46915"/><use transform="translate(306.5,22.158000459671015)" xmlns:ns3="http://www.w3.org/1999/xlink" ns3:href="#fl-icon-46915"/><use transform="translate(437.5,22.158000459671015)" xmlns:ns4="http://www.w3.org/1999/xlink" ns4:href="#fl-icon-46915"/><use transform="translate(567.5,22.158000459671015)" xmlns:ns5="http://www.w3.org/1999/xlink" ns5:href="#fl-icon-46915"/></g></g><g class="icon-layer" style="opacity: 1;"><defs><path id="fl-icon-46766" d="M128 0c35.346 0 64 28.654 64 64s-28.654 64-64 64c-35.346 0-64-28.654-64-64S92.654 0 128 0m119.283 354.179l-48-192A24 24 0 0 0 176 144h-11.36c-22.711 10.443-49.59 10.894-73.28 0H80a24 24 0 0 0-23.283 18.179l-48 192C4.935 369.305 16.383 384 32 384h56v104c0 13.255 10.745 24 24 24h32c13.255 0 24-10.745 24-24V384h56c15.591 0 27.071-14.671 23.283-29.821z" transform="translate(0,0)scale(0.22901485286280515)" style="fill: rgb(255, 98, 131); stroke: none; stroke-width: 0;"/></defs><g class="icons" clip-path="url(#fl-clip-path-46766)"><use transform="translate(697.5,22.158000459671015)" xmlns:ns6="http://www.w3.org/1999/xlink" ns6:href="#fl-icon-46766"/></g></g></g><g class="clip-paths"><clipPath id="fl-clip-path-46915"><path d="M10.5,15.158000459671015 L140.7840051841736,15.158000459671015 L140.7840051841736,145.4420056438446 L10.5,145.4420056438446 z M140.7840051841736,15.158000459671015 L661.9200259208679,15.158000459671015 L661.9200259208679,145.4420056438446 L140.7840051841736,145.4420056438446 z M661.9200259208679,15.158000459671015 L661.9200259208679,15.158000459671015 L661.9200259208679,145.4420056438446 L661.9200259208679,145.4420056438446 z " style="fill: rgb(255, 255, 255);"/></clipPath><clipPath id="fl-clip-path-46766"><path d="M661.9200259208679,15.158000459671015 L792.2040311050416,15.158000459671015 L792.2040311050416,145.4420056438446 L661.9200259208679,145.4420056438446 z M792.2040311050416,15.158000459671015 L792.2040311050416,15.158000459671015 L792.2040311050416,145.4420056438446 L792.2040311050416,145.4420056438446 z " style="fill: rgb(255, 255, 255);"/></clipPath></g><g class="popup-positions"><path d="M10.5,15.158000459671015 L140.7840051841736,15.158000459671015 L140.7840051841736,145.4420056438446 L10.5,145.4420056438446 z M140.7840051841736,15.158000459671015 L661.9200259208679,15.158000459671015 L661.9200259208679,145.4420056438446 L140.7840051841736,145.4420056438446 z M661.9200259208679,15.158000459671015 L661.9200259208679,15.158000459671015 L661.9200259208679,145.4420056438446 L661.9200259208679,145.4420056438446 z " style="fill: transparent;"/><path d="M661.9200259208679,15.158000459671015 L792.2040311050416,15.158000459671015 L792.2040311050416,145.4420056438446 L661.9200259208679,145.4420056438446 z M792.2040311050416,15.158000459671015 L792.2040311050416,15.158000459671015 L792.2040311050416,145.4420056438446 L792.2040311050416,145.4420056438446 z " style="fill: transparent;"/></g><g class="events"><path d="M10.5,15.158000459671015 L140.7840051841736,15.158000459671015 L140.7840051841736,145.4420056438446 L10.5,145.4420056438446 z M140.7840051841736,15.158000459671015 L661.9200259208679,15.158000459671015 L661.9200259208679,145.4420056438446 L140.7840051841736,145.4420056438446 z M661.9200259208679,15.158000459671015 L661.9200259208679,15.158000459671015 L661.9200259208679,145.4420056438446 L661.9200259208679,145.4420056438446 z " role="img" aria-roledescription="data point" aria-label="si, 2019 Consumption (TWh): 5" style="fill: transparent;"/><path d="M661.9200259208679,15.158000459671015 L792.2040311050416,15.158000459671015 L792.2040311050416,145.4420056438446 L661.9200259208679,145.4420056438446 z M792.2040311050416,15.158000459671015 L792.2040311050416,15.158000459671015 L792.2040311050416,145.4420056438446 L792.2040311050416,145.4420056438446 z " role="img" aria-roledescription="data point" aria-label="no, 2019 Consumption (TWh): 1" style="fill: transparent;"/></g><text class="bar-label" x="792.2040311050416" y="80.30000305175781" style="display: none; font-size: 0px; fill: rgb(74, 74, 74); font-weight: bold; text-anchor: start;">6</text></g></g></g></g></svg><svg xmlns="http://www.w3.org/2000/svg" id="chart-layout-hidden" style="opacity: 0; pointer-events: none;" x="0" y="181.60000610351562"><g class="fl-chart"><rect class="fl-chart-debug-rectangle" x="0" y="0" style="stroke-width: 1px; fill: none; display: none; stroke: red;" width="300" height="150"/><clipPath class="fl-data-clip-path" id="fl-chart-layout-1-clip-path"><rect x="0" y="0" width="300" height="150"/></clipPath><clipPath class="fl-grid-clip-path" id="fl-chart-layout-1-grid-clip-path"><rect x="34.4" y="6.320000171661377" width="255.99942834323923" height="103.86435746123843"/></clipPath><g class="fl-chart-background"><rect class="fl-chart-fill" x="36" y="7.9200001716613775" width="252.79942834323924" height="100.66435746123841" fill="none"/><image class="fl-chart-image" x="36" y="7.9200001716613775" width="252.79942834323924" height="100.66435746123841" preserveAspectRatio="none"/><rect class="fl-chart-interaction" x="36" y="7.9200001716613775" width="252.79942834323924" height="100.66435746123841" style="opacity: 0;"/></g><g class="fl-data-background" clip-path="url(#fl-chart-layout-1-clip-path)"/><g class="fl-gridlines" clip-path="url(#fl-chart-layout-1-grid-clip-path)" style="pointer-events: none;"><g class="fl-gridlines-vertical"/><g class="fl-gridlines-horizontal"/></g><g class="fl-axes" aria-hidden="true"><g class="fl-x-axes"><g class="fl-axis fl-x-axis fl-bottom-axis"><g class="fl-axis-line"><line x1="36" y1="108.5843576328998" y2="108.5843576328998" x2="288.79942834323924" style="shape-rendering: crispedges; stroke-linecap: square; stroke-width: 1.6; opacity: 1; stroke: rgb(238, 238, 238);"/></g><g class="fl-axis-ticks"><g transform="translate(36,108.5843576328998)" style="opacity: 1;"><line y2="8" style="stroke: rgb(238, 238, 238); stroke-width: 1.6;"/><text text-anchor="end" transform="translate(0,12) rotate(-45,0,0) translate(0,10.56)" style="user-select: none; cursor: default; fill: rgb(74, 74, 74); font-size: 16px; font-weight: normal;"><tspan x="0" dy="0">0</tspan></text></g><g transform="translate(288.79942834323924,108.5843576328998)" style="opacity: 1;"><line y2="8" style="stroke: rgb(238, 238, 238); stroke-width: 1.6;"/><text text-anchor="end" transform="translate(0,12) rotate(-45,0,0) translate(0,10.56)" style="user-select: none; cursor: default; fill: rgb(74, 74, 74); font-size: 16px; font-weight: normal;"><tspan x="0" dy="0">100</tspan></text></g><g transform="translate(263.51948550891535,108.5843576328998)" style="opacity: 1;"><line y2="8" style="stroke: rgb(238, 238, 238); stroke-width: 1.6;"/><text text-anchor="end" transform="translate(0,12) rotate(-45,0,0) translate(0,10.56)" style="user-select: none; cursor: default; fill: rgb(74, 74, 74); font-size: 16px; font-weight: normal;"><tspan x="0" dy="0">90</tspan></text></g><g transform="translate(238.2395426745914,108.5843576328998)" style="opacity: 1;"><line y2="8" style="stroke: rgb(238, 238, 238); stroke-width: 1.6;"/><text text-anchor="end" transform="translate(0,12) rotate(-45,0,0) translate(0,10.56)" style="user-select: none; cursor: default; fill: rgb(74, 74, 74); font-size: 16px; font-weight: normal;"><tspan x="0" dy="0">80</tspan></text></g><g transform="translate(212.95959984026746,108.5843576328998)" style="opacity: 1;"><line y2="8" style="stroke: rgb(238, 238, 238); stroke-width: 1.6;"/><text text-anchor="end" transform="translate(0,12) rotate(-45,0,0) translate(0,10.56)" style="user-select: none; cursor: default; fill: rgb(74, 74, 74); font-size: 16px; font-weight: normal;"><tspan x="0" dy="0">70</tspan></text></g><g transform="translate(187.67965700594354,108.5843576328998)" style="opacity: 1;"><line y2="8" style="stroke: rgb(238, 238, 238); stroke-width: 1.6;"/><text text-anchor="end" transform="translate(0,12) rotate(-45,0,0) translate(0,10.56)" style="user-select: none; cursor: default; fill: rgb(74, 74, 74); font-size: 16px; font-weight: normal;"><tspan x="0" dy="0">60</tspan></text></g><g transform="translate(162.39971417161962,108.5843576328998)" style="opacity: 1;"><line y2="8" style="stroke: rgb(238, 238, 238); stroke-width: 1.6;"/><text text-anchor="end" transform="translate(0,12) rotate(-45,0,0) translate(0,10.56)" style="user-select: none; cursor: default; fill: rgb(74, 74, 74); font-size: 16px; font-weight: normal;"><tspan x="0" dy="0">50</tspan></text></g><g transform="translate(137.1197713372957,108.5843576328998)" style="opacity: 1;"><line y2="8" style="stroke: rgb(238, 238, 238); stroke-width: 1.6;"/><text text-anchor="end" transform="translate(0,12) rotate(-45,0,0) translate(0,10.56)" style="user-select: none; cursor: default; fill: rgb(74, 74, 74); font-size: 16px; font-weight: normal;"><tspan x="0" dy="0">40</tspan></text></g><g transform="translate(111.83982850297177,108.5843576328998)" style="opacity: 1;"><line y2="8" style="stroke: rgb(238, 238, 238); stroke-width: 1.6;"/><text text-anchor="end" transform="translate(0,12) rotate(-45,0,0) translate(0,10.56)" style="user-select: none; cursor: default; fill: rgb(74, 74, 74); font-size: 16px; font-weight: normal;"><tspan x="0" dy="0">30</tspan></text></g><g transform="translate(86.55988566864785,108.5843576328998)" style="opacity: 1;"><line y2="8" style="stroke: rgb(238, 238, 238); stroke-width: 1.6;"/><text text-anchor="end" transform="translate(0,12) rotate(-45,0,0) translate(0,10.56)" style="user-select: none; cursor: default; fill: rgb(74, 74, 74); font-size: 16px; font-weight: normal;"><tspan x="0" dy="0">20</tspan></text></g><g transform="translate(61.279942834323926,108.5843576328998)" style="opacity: 1;"><line y2="8" style="stroke: rgb(238, 238, 238); stroke-width: 1.6;"/><text text-anchor="end" transform="translate(0,12) rotate(-45,0,0) translate(0,10.56)" style="user-select: none; cursor: default; fill: rgb(74, 74, 74); font-size: 16px; font-weight: normal;"><tspan x="0" dy="0">10</tspan></text></g></g><g class="fl-axis-title"/></g><g class="fl-axis fl-x-axis fl-top-axis"><g class="fl-axis-line"/><g class="fl-axis-ticks"/><g class="fl-axis-title"/></g></g><g class="fl-y-axes"><g class="fl-axis fl-y-axis fl-left-axis"><g class="fl-axis-line"><line x1="36" x2="36" y1="108.5843576328998" y2="7.9200001716613775" style="shape-rendering: crispedges; stroke-linecap: square; stroke-width: 1.6; opacity: 1; stroke: rgb(238, 238, 238);"/></g><g class="fl-axis-ticks"><g transform="translate(36,108.58435763289978)" style="opacity: 1;"><line x2="-8" style="stroke: rgb(238, 238, 238); stroke-width: 1.6;"/><text text-anchor="end" transform="translate(-12,5.28)" style="user-select: none; cursor: default; fill: rgb(74, 74, 74); font-size: 16px; font-weight: normal;"><tspan x="0" dy="0">0</tspan></text></g><g transform="translate(36,7.9200001716613775)" style="opacity: 1;"><line x2="-8" style="stroke: rgb(238, 238, 238); stroke-width: 1.6;"/><text text-anchor="end" transform="translate(-12,5.28)" style="user-select: none; cursor: default; fill: rgb(74, 74, 74); font-size: 16px; font-weight: normal;"><tspan x="0" dy="0">100</tspan></text></g><g transform="translate(36,28.052871663909052)" style="opacity: 1;"><line x2="-8" style="stroke: rgb(238, 238, 238); stroke-width: 1.6;"/><text text-anchor="end" transform="translate(-12,5.28)" style="user-select: none; cursor: default; fill: rgb(74, 74, 74); font-size: 16px; font-weight: normal;"><tspan x="0" dy="0">80</tspan></text></g><g transform="translate(36,48.18574315615674)" style="opacity: 1;"><line x2="-8" style="stroke: rgb(238, 238, 238); stroke-width: 1.6;"/><text text-anchor="end" transform="translate(-12,5.28)" style="user-select: none; cursor: default; fill: rgb(74, 74, 74); font-size: 16px; font-weight: normal;"><tspan x="0" dy="0">60</tspan></text></g><g transform="translate(36,68.31861464840442)" style="opacity: 1;"><line x2="-8" style="stroke: rgb(238, 238, 238); stroke-width: 1.6;"/><text text-anchor="end" transform="translate(-12,5.28)" style="user-select: none; cursor: default; fill: rgb(74, 74, 74); font-size: 16px; font-weight: normal;"><tspan x="0" dy="0">40</tspan></text></g><g transform="translate(36,88.45148614065211)" style="opacity: 1;"><line x2="-8" style="stroke: rgb(238, 238, 238); stroke-width: 1.6;"/><text text-anchor="end" transform="translate(-12,5.28)" style="user-select: none; cursor: default; fill: rgb(74, 74, 74); font-size: 16px; font-weight: normal;"><tspan x="0" dy="0">20</tspan></text></g></g><g class="fl-axis-title"/></g><g class="fl-axis fl-y-axis fl-right-axis"><g class="fl-axis-line"/><g class="fl-axis-ticks"/><g class="fl-axis-title"/></g></g></g><g class="fl-data-foreground" clip-path="url(#fl-chart-layout-1-clip-path)"/></g></svg></svg>